<?xml version="1.0" encoding="UTF-8"?>
<svg id="Layer_2" xmlns="http://www.w3.org/2000/svg" version="1.1" viewBox="0 0 255.1 61.6">
  <!-- Generator: Adobe Illustrator 29.3.1, SVG Export Plug-In . SVG Version: 2.1.0 Build 151)  -->
  <defs>
    <style>
      .st0 {
        fill: #FF6400;
      }

      .st1 {
        isolation: isolate;
      }
    </style>
  </defs>
  <g id="Layer_1-2">
    <g>
      <g>
        <path class="st0" d="M202.3,21.9c3.8,3,8.6,4.6,13.7,4.6,0-2.4-1.7-4.5-4.1-5.1-2.5-.6-4.8-1.6-6.7-3.1-2.4-1.9-3.9-4.2-4.3-6.7,0-.4.3-.8.7-.7,2,.3,5.8.7,14.6.7,4.4,0,5.1,1.5,6.6,5,0,0,0,.1.1.3-1.2,3.3-3.6,10.3-4.4,16.6,1.5.2,3,.3,4.6.4.4-3.3,1.4-6.9,2.3-10,.9,3.1,1.9,6.7,2.3,10.1,1.5,0,3.1-.1,4.6-.3-.8-6.4-3.2-13.5-4.5-16.8,0-.2.1-.3.1-.3,1.4-3.6,2.2-5,6.6-5,9,0,12.7-.4,14.7-.7.4,0,.6.2.6.6-.4,2.5-1.9,4.9-4.3,6.8-1.9,1.5-4.2,2.6-6.7,3.1-2.4.5-4.1,2.6-4.1,5,5.1,0,9.9-1.6,13.7-4.6,3.9-3.1,6.1-7.2,6.1-11.7v-.6c0-.2,0-.5,0-.8-.4-2-2.6-3.2-4.9-2.7-1.4.3-4.3.9-15,.9-5.1,0-7.5,1.8-9.1,4.4-1.6-2.6-4.1-4.3-9.1-4.4-10.8,0-13.6-.6-15-.9-2.3-.5-4.5.7-4.9,2.7,0,.2,0,.5,0,.8v.6c0,4.4,2.2,8.5,6.1,11.7h0Z"/>
        <g>
          <path class="st0" d="M47.7,27.3h-4.5v-2.9c-1.5,2-3.8,2.9-6.4,2.9-8.4,0-10.9-4.7-10.9-10.7s2.3-10.7,10.9-10.7,10.9,4.9,10.9,10.7v10.7h0ZM30.3,16.6c0,5,1.6,7,6.5,7s6.4-2,6.4-7-1.5-7-6.5-7-6.5,2-6.5,7Z"/>
          <path class="st0" d="M13,27.4c-2.7,0-5.3-.9-6.7-3.1v9H1.8V5.9h4.5v3.2c1.5-2.4,4-3.2,6.7-3.2,7.3,0,10.7,3.5,10.7,10.8s-3.4,10.7-10.6,10.7h0ZM6.3,16.7c0,4.9,1.7,7.1,6.7,7.1s6.1-2.2,6.1-7.1-1.4-7-6.1-7-6.7,2.3-6.7,7Z"/>
          <path class="st0" d="M85.5,27.4c-2.7,0-5.3-.9-6.7-3.1v9h-4.5V5.9h4.5v3.2c1.5-2.4,4-3.2,6.7-3.2,7.3,0,10.7,3.5,10.7,10.8s-3.4,10.7-10.6,10.7h0ZM78.8,16.7c0,4.9,1.7,7.1,6.7,7.1s6.1-2.2,6.1-7.1-1.4-7-6.2-7-6.7,2.3-6.7,7Z"/>
          <path class="st0" d="M115.7,27.4v-12c0-4.5-2.1-5.9-6.4-5.9s-6.3,1.5-6.3,5.6v12.3h-4.5V0h4.5v8.8c1.4-2.3,3.8-2.8,6.3-2.8,8.6,0,11,4.7,11,9.2v12.2h-4.5,0Z"/>
          <path class="st0" d="M133.4,27.4c-7.3,0-11-3.5-11-10.8s3.7-10.8,11-10.8,10.9,3.5,10.9,10.8-3.7,10.8-10.9,10.8ZM133.4,9.4c-5,0-6.5,2.3-6.5,7.2s1.5,7.1,6.5,7.1,6.5-2.3,6.5-7.1-1.5-7.2-6.5-7.2Z"/>
          <path class="st0" d="M163.8,27.4c0-2.8,0-6.3,0-9,0-5-.6-8.3-6.4-8.3s-6.3,2.6-6.3,7.2v10.1h-4.5V5.9h4.5v3.4c1.7-2.3,4-2.8,6.3-2.8,6,0,10.9,2.5,10.9,9.1v11.8h-4.5Z"/>
          <path class="st0" d="M187.2,20.8s0,0,0,0c-.4,2.1-2.5,3-5.6,3s-6.1-1.7-6.5-5.3h17.1c.5-8.1-2.2-12.6-10.8-12.6s-10.9,5-10.9,10.8,2.3,10.7,10.9,10.7,8.9-1.7,10.3-6.6h-4.6,0ZM181.6,9.5c4.4,0,6.1,1.9,6.3,5.5h-12.8c.2-3.7,2-5.5,6.5-5.5Z"/>
          <path class="st0" d="M67.2,5.9l-6.2,13.7-6-13.7h-4.7l8.4,18.8c-1.2,2.1-2.2,3.9-3.1,4.4-1,.6-2.2.4-4.5.5h-1.1v3.6h1.3c1.8,0,3.5,0,5.1-.5,3.6-.9,5.2-4.3,6.6-7.4,3.2-6.5,6.4-13.8,9.1-19.5h-4.7,0Z"/>
        </g>
      </g>
      <g class="st1">
        <g class="st1">
          <path class="st0" d="M1.4,43.4h8.7v1H2.5v5.4h6.4v1H2.5v5.7h7.8v1H1.4v-14.1Z"/>
          <path class="st0" d="M15.2,52.2l-3.8-5h1.2l3.2,4.2,3.2-4.2h1.1l-3.8,5,4,5.2h-1.2l-3.4-4.5-3.4,4.5h-1.1l4-5.2Z"/>
          <path class="st0" d="M22.8,43.7c.1.1.2.3.2.5s0,.4-.2.5c-.1.1-.3.2-.5.2s-.4,0-.5-.2c-.1-.1-.2-.3-.2-.5s0-.4.2-.5c.1-.1.3-.2.5-.2s.4,0,.5.2ZM21.8,47.2h1v10.2h-1v-10.2Z"/>
          <path class="st0" d="M25.9,54.3c0,.7.4,1.3.9,1.7.6.4,1.4.6,2.3.6s1.5-.2,2.1-.5c.5-.4.8-.8.8-1.4s-.1-.8-.4-1.1c-.3-.3-.6-.4-1-.6-.4-.1-1-.2-1.7-.3-.9-.1-1.6-.3-2.1-.4-.5-.2-1-.4-1.3-.8-.3-.4-.5-.9-.5-1.5s.2-1.1.5-1.5c.3-.4.8-.8,1.3-1,.6-.2,1.2-.4,1.9-.4,1.2,0,2.1.3,2.8.8.7.5,1.1,1.3,1.2,2.2h-1c0-.7-.4-1.2-1-1.6-.5-.4-1.2-.6-2-.6s-1.5.2-2.1.5c-.5.4-.8.8-.8,1.4s.1.8.4,1,.6.4,1,.5.9.2,1.6.3c.9.1,1.6.3,2.2.5.6.2,1,.5,1.4.9.4.4.5.9.5,1.6s-.4,1.6-1.1,2.1c-.8.5-1.7.8-2.8.8s-2.3-.3-3.1-.9c-.8-.6-1.2-1.4-1.2-2.4h1Z"/>
        </g>
        <g class="st1">
          <path class="st0" d="M35.9,48.2h-1.9v-.9h1.9v-2.9h1v2.9h2.7v.9h-2.7v6.9c0,.5.1.9.3,1.1.2.2.6.3,1.1.3h1.5v.9h-1.5c-.9,0-1.5-.2-1.8-.6-.4-.4-.6-1-.6-1.8v-6.9Z"/>
        </g>
        <g class="st1">
          <path class="st0" d="M41.1,49.6c.4-.8,1-1.4,1.7-1.8.7-.4,1.5-.7,2.4-.7s1.7.2,2.4.6,1.2.9,1.7,1.7c.4.7.6,1.6.7,2.6,0,.2,0,.3,0,.4h-8.3c0,0,0,.1,0,.2,0,.8.2,1.5.5,2.1.3.6.8,1.1,1.3,1.4.6.3,1.2.5,1.9.5s1.6-.2,2.2-.7c.6-.5,1-1.1,1.2-1.9h1c-.2,1-.8,1.9-1.5,2.5-.8.6-1.7,1-2.8,1s-1.8-.2-2.5-.7-1.3-1.1-1.7-1.9c-.4-.8-.6-1.7-.6-2.7s.2-1.9.6-2.7ZM48.9,51.5c0-1.1-.5-2-1.1-2.6-.7-.6-1.5-.9-2.5-.9s-1.2.1-1.7.4c-.5.3-1,.7-1.3,1.2-.3.5-.5,1.1-.6,1.8h7.2Z"/>
          <path class="st0" d="M65.9,47.2v10.2h-.9v-2.2c-.4.7-.9,1.2-1.5,1.7-.6.4-1.3.6-2.2.6s-2.1-.4-2.8-1.2c-.7-.8-1.1-1.9-1.1-3.4v-5.7h1v5.7c0,1.2.3,2.1.8,2.8.5.6,1.3,1,2.3,1s1.9-.4,2.5-1.2c.6-.8.9-1.8.9-3.2v-5h1Z"/>
          <path class="st0" d="M75.9,48.3c.7.8,1.1,1.9,1.1,3.5v5.7h-1v-5.7c0-1.2-.3-2.1-.8-2.7-.6-.6-1.3-1-2.3-1s-1.9.4-2.6,1.2c-.6.8-.9,1.8-.9,3.2v5h-1v-10.2h.9l.2,2.2c.3-.7.8-1.3,1.4-1.7.6-.4,1.4-.6,2.3-.6s2.2.4,2.9,1.1Z"/>
          <path class="st0" d="M98.8,48.2c.7.8,1,1.9,1,3.4v5.8h-1v-5.8c0-1.2-.2-2.1-.7-2.7-.5-.6-1.2-.9-2.1-.9s-1.7.3-2.3,1c-.6.7-.9,1.6-.9,2.8v5.6h-1v-5.8c0-1.2-.3-2.1-.8-2.7-.5-.6-1.2-.9-2.1-.9s-1.7.4-2.3,1.1c-.6.8-.9,1.8-.9,3v5.2h-1v-10.2h.9l.2,2.2c.3-.7.7-1.3,1.2-1.7.6-.4,1.3-.6,2.1-.6s1.5.2,2.1.7c.6.4,1,1.1,1.2,1.9.3-.8.8-1.4,1.4-1.9.6-.5,1.4-.7,2.3-.7s2,.4,2.7,1.1Z"/>
          <path class="st0" d="M110.5,47.2v10.2h-.9v-2.2c-.4.7-.9,1.2-1.5,1.7-.6.4-1.3.6-2.2.6s-2.1-.4-2.8-1.2c-.7-.8-1.1-1.9-1.1-3.4v-5.7h1v5.7c0,1.2.3,2.1.8,2.8.5.6,1.3,1,2.3,1s1.9-.4,2.5-1.2c.6-.8.9-1.8.9-3.2v-5h1Z"/>
          <path class="st0" d="M120.6,48.3c.7.8,1.1,1.9,1.1,3.5v5.7h-1v-5.7c0-1.2-.3-2.1-.8-2.7-.6-.6-1.3-1-2.3-1s-1.9.4-2.6,1.2c-.6.8-.9,1.8-.9,3.2v5h-1v-10.2h.9l.2,2.2c.3-.7.8-1.3,1.4-1.7.6-.4,1.4-.6,2.3-.6s2.2.4,2.9,1.1Z"/>
          <path class="st0" d="M133.4,43.4v14.1h-.9l-.2-2.3c-.3.7-.8,1.3-1.5,1.8-.7.4-1.5.7-2.4.7s-1.8-.2-2.5-.6c-.7-.4-1.3-1-1.7-1.8-.4-.8-.6-1.7-.6-2.8s.2-1.9.6-2.7c.4-.8,1-1.4,1.7-1.8.7-.4,1.6-.7,2.5-.7s1.7.2,2.4.6c.7.4,1.2,1,1.5,1.8v-6.2h1ZM130.5,56.1c.6-.4,1-.9,1.4-1.5.3-.7.5-1.4.5-2.2s-.2-1.6-.5-2.2c-.3-.7-.8-1.2-1.4-1.5-.6-.4-1.2-.6-2-.6s-1.4.2-2,.6c-.6.4-1,.9-1.4,1.5s-.5,1.4-.5,2.2.2,1.6.5,2.2c.3.7.8,1.2,1.4,1.5.6.4,1.2.5,2,.5s1.4-.2,2-.5Z"/>
          <path class="st0" d="M137.8,56.9c-.7-.4-1.3-1.1-1.7-1.9-.4-.8-.6-1.7-.6-2.7s.2-1.9.6-2.7c.4-.8,1-1.4,1.7-1.8.7-.4,1.6-.7,2.5-.7s1.8.2,2.5.7c.7.4,1.3,1.1,1.7,1.8.4.8.6,1.7.6,2.7s-.2,1.9-.6,2.7c-.4.8-1,1.4-1.7,1.9s-1.6.7-2.5.7-1.8-.2-2.5-.7ZM142.3,56.1c.6-.4,1-.9,1.4-1.5.3-.7.5-1.4.5-2.2s-.2-1.6-.5-2.2c-.3-.7-.8-1.2-1.4-1.5-.6-.4-1.3-.6-2-.6s-1.4.2-2,.6c-.6.4-1,.9-1.4,1.5-.3.7-.5,1.4-.5,2.2s.2,1.6.5,2.2c.3.7.8,1.2,1.4,1.5.6.4,1.2.5,2,.5s1.4-.2,2-.5Z"/>
          <path class="st0" d="M166.8,48.2c.7.8,1,1.9,1,3.4v5.8h-1v-5.8c0-1.2-.2-2.1-.7-2.7-.5-.6-1.2-.9-2.1-.9s-1.7.3-2.3,1c-.6.7-.9,1.6-.9,2.8v5.6h-1v-5.8c0-1.2-.3-2.1-.8-2.7-.5-.6-1.2-.9-2.1-.9s-1.7.4-2.3,1.1c-.6.8-.9,1.8-.9,3v5.2h-1v-10.2h.9l.2,2.2c.3-.7.7-1.3,1.2-1.7.6-.4,1.3-.6,2.1-.6s1.5.2,2.1.7c.6.4,1,1.1,1.2,1.9.3-.8.8-1.4,1.4-1.9.6-.5,1.4-.7,2.3-.7s2,.4,2.7,1.1Z"/>
          <path class="st0" d="M179.5,56.5v.9h-.6c-.6,0-1-.1-1.3-.4-.3-.3-.4-.7-.4-1.2v-.4c-.3.7-.8,1.2-1.4,1.6-.7.4-1.5.6-2.5.6s-2-.3-2.6-.8c-.7-.5-1-1.2-1-2.1s.3-1.7,1-2.2c.7-.5,1.7-.8,3-.8h3.5v-.9c0-.8-.3-1.5-.8-2s-1.3-.7-2.2-.7-1.5.2-2.1.6c-.5.4-.9.9-1,1.5h-1c.1-.9.6-1.7,1.3-2.2.7-.5,1.7-.8,2.8-.8s2.3.3,3,.9c.7.6,1,1.5,1,2.7v4.7c0,.3,0,.5.2.7.2.2.4.3.7.3h.4ZM177.2,52.5h-3.5c-.9,0-1.7.2-2.2.5-.5.4-.7.9-.7,1.5s.2,1.1.7,1.5c.5.4,1.1.6,1.9.6,1.2,0,2.1-.3,2.8-.9.7-.6,1-1.4,1-2.4v-.8ZM173.8,45.9l1.8-2.7h1.2l-2.2,2.7h-.8Z"/>
          <path class="st0" d="M181.6,54.3c0,.7.4,1.3.9,1.7.6.4,1.4.6,2.3.6s1.5-.2,2.1-.5c.5-.4.8-.8.8-1.4s-.1-.8-.4-1.1-.6-.4-1-.6c-.4-.1-1-.2-1.7-.3-.9-.1-1.6-.3-2.1-.4s-1-.4-1.3-.8c-.3-.4-.5-.9-.5-1.5s.2-1.1.5-1.5.8-.8,1.3-1c.6-.2,1.2-.4,1.9-.4,1.2,0,2.1.3,2.8.8.7.5,1.1,1.3,1.2,2.2h-1c0-.7-.4-1.2-1-1.6-.5-.4-1.2-.6-2-.6s-1.5.2-2.1.5c-.5.4-.8.8-.8,1.4s.1.8.4,1c.3.2.6.4,1,.5.4,0,.9.2,1.6.3.9.1,1.6.3,2.2.5.6.2,1,.5,1.4.9s.5.9.5,1.6-.4,1.6-1.1,2.1c-.8.5-1.7.8-2.8.8s-2.3-.3-3.1-.9c-.8-.6-1.2-1.4-1.2-2.4h1Z"/>
          <path class="st0" d="M196.9,54.3c0,.7.4,1.3.9,1.7.6.4,1.4.6,2.3.6s1.5-.2,2.1-.5c.5-.4.8-.8.8-1.4s-.1-.8-.4-1.1-.6-.4-1-.6c-.4-.1-1-.2-1.7-.3-.9-.1-1.6-.3-2.1-.4s-1-.4-1.3-.8c-.3-.4-.5-.9-.5-1.5s.2-1.1.5-1.5.8-.8,1.3-1c.6-.2,1.2-.4,1.9-.4,1.2,0,2.1.3,2.8.8.7.5,1.1,1.3,1.2,2.2h-1c0-.7-.4-1.2-1-1.6-.5-.4-1.2-.6-2-.6s-1.5.2-2.1.5c-.5.4-.8.8-.8,1.4s.1.8.4,1c.3.2.6.4,1,.5.4,0,.9.2,1.6.3.9.1,1.6.3,2.2.5.6.2,1,.5,1.4.9s.5.9.5,1.6-.4,1.6-1.1,2.1c-.8.5-1.7.8-2.8.8s-2.3-.3-3.1-.9c-.8-.6-1.2-1.4-1.2-2.4h1Z"/>
          <path class="st0" d="M207.2,43.7c.1.1.2.3.2.5s0,.4-.2.5c-.1.1-.3.2-.5.2s-.4,0-.5-.2-.2-.3-.2-.5,0-.4.2-.5c.1-.1.3-.2.5-.2s.4,0,.5.2ZM206.1,47.2h1v10.2h-1v-10.2Z"/>
          <path class="st0" d="M223.7,48.2c.7.8,1,1.9,1,3.4v5.8h-1v-5.8c0-1.2-.2-2.1-.7-2.7-.5-.6-1.2-.9-2.1-.9s-1.7.3-2.3,1c-.6.7-.9,1.6-.9,2.8v5.6h-1v-5.8c0-1.2-.3-2.1-.8-2.7-.5-.6-1.2-.9-2.1-.9s-1.7.4-2.3,1.1c-.6.8-.9,1.8-.9,3v5.2h-1v-10.2h.9l.2,2.2c.3-.7.7-1.3,1.2-1.7.6-.4,1.3-.6,2.1-.6s1.5.2,2.1.7c.6.4,1,1.1,1.2,1.9.3-.8.8-1.4,1.4-1.9.6-.5,1.4-.7,2.3-.7s2,.4,2.7,1.1Z"/>
          <path class="st0" d="M234.4,47.7c.7.4,1.3,1,1.7,1.8.4.8.6,1.7.6,2.8s-.2,1.9-.6,2.7c-.4.8-1,1.4-1.7,1.9s-1.6.7-2.5.7-1.8-.2-2.4-.7-1.2-1-1.5-1.8v6.4h-1v-14.2h.9l.2,2.3c.3-.8.8-1.3,1.5-1.8.7-.4,1.5-.7,2.4-.7s1.8.2,2.5.6ZM233.8,56.1c.6-.4,1-.9,1.4-1.5.3-.7.5-1.4.5-2.2s-.2-1.6-.5-2.2c-.3-.7-.8-1.2-1.4-1.5-.6-.4-1.3-.6-2-.6s-1.4.2-2,.6c-.6.4-1,.9-1.4,1.5-.3.7-.5,1.4-.5,2.2s.2,1.6.5,2.3c.3.7.8,1.2,1.4,1.5.6.4,1.2.5,2,.5s1.4-.2,2-.5Z"/>
          <path class="st0" d="M238.8,43.4h1v14.1h-1v-14.1Z"/>
        </g>
        <g class="st1">
          <path class="st0" d="M242.5,49.6c.4-.8,1-1.4,1.7-1.8.7-.4,1.5-.7,2.4-.7s1.7.2,2.4.6,1.2.9,1.7,1.7c.4.7.6,1.6.7,2.6,0,.2,0,.3,0,.4h-8.3c0,0,0,.1,0,.2,0,.8.2,1.5.5,2.1.3.6.8,1.1,1.3,1.4.6.3,1.2.5,1.9.5s1.6-.2,2.2-.7c.6-.5,1-1.1,1.2-1.9h1c-.2,1-.8,1.9-1.5,2.5-.8.6-1.7,1-2.8,1s-1.8-.2-2.5-.7-1.3-1.1-1.7-1.9c-.4-.8-.6-1.7-.6-2.7s.2-1.9.6-2.7ZM250.2,51.5c0-1.1-.5-2-1.1-2.6-.7-.6-1.5-.9-2.5-.9s-1.2.1-1.7.4c-.5.3-1,.7-1.3,1.2-.3.5-.5,1.1-.6,1.8h7.2Z"/>
        </g>
        <g class="st1">
          <path class="st0" d="M252.7,56.2c.1-.1.3-.2.6-.2s.4,0,.6.2c.1.1.2.3.2.5s0,.4-.2.6c-.1.1-.3.2-.6.2s-.4,0-.6-.2-.2-.3-.2-.6,0-.4.2-.5Z"/>
        </g>
      </g>
    </g>
  </g>
</svg>